# xmcd CD database file
#
# Track frame offsets:
#	150
#	36124
#	62059
#	85631
#	116505
#	141189
#	166670
#	202853
#	242141
#	259740
#	279034
#	309210
#	328674
#
# Disc length: 4721 seconds
#
# Revision: 0
# Processed by: cddbd v1.5.2PL0 Copyright (c) Steve Scherf et al.
# Submitted via: CDex 1.70beta2
#
DISCID=a2126f0d
DTITLE=Dolphy, Eric - Outward Bound - Far Cry
DYEAR=1961
DGENRE=Jazz
TTITLE0=G. W.
TTITLE1=On Green Dolphin Street
TTITLE2=Les
TTITLE3=245
TTITLE4=Glad To Be Unhappy
TTITLE5=Miss Toni
TTITLE6=Mrs. Parker Of K. C.
TTITLE7=Ode To Charlie Parker
TTITLE8=Far Cry
TTITLE9=Miss Ann
TTITLE10=Left Alone
TTITLE11=Tenderly
TTITLE12=It's Magic
EXTD=YEAR: 1961
EXTT0=
EXTT1=
EXTT2=
EXTT3=
EXTT4=
EXTT5=
EXTT6=
EXTT7=
EXTT8=
EXTT9=
EXTT10=
EXTT11=
EXTT12=
PLAYORDER=
